<?xml version="1.0" standalone="no"?>
<!DOCTYPE svg PUBLIC "-//W3C//DTD SVG 20010904//EN"
 "http://www.w3.org/TR/2001/REC-SVG-20010904/DTD/svg10.dtd">
<svg version="1.0" xmlns="http://www.w3.org/2000/svg"
 width="580.000000pt" height="580.000000pt" viewBox="0 0 580.000000 580.000000"
 preserveAspectRatio="xMidYMid meet">
<metadata>
Created by potrace 1.14, written by Peter Selinger 2001-2017
</metadata>
<g transform="translate(0.000000,580.000000) scale(0.100000,-0.100000)"
fill="#000000" stroke="none">
<path d="M2723 4828 c-55 -26 -77 -31 -133 -27 -8 1 -53 -2 -100 -5 -68 -5
-88 -10 -102 -26 -9 -11 -20 -20 -25 -18 -16 4 -93 -14 -93 -22 0 -13 -52 -19
-70 -7 -13 8 -29 2 -73 -27 -71 -48 -86 -82 -91 -223 -4 -121 3 -147 55 -183
24 -18 29 -28 25 -45 -6 -24 1 -55 13 -55 3 0 17 20 30 45 20 37 29 46 60 50
37 6 90 30 150 67 30 19 37 20 65 9 70 -29 134 -37 260 -34 71 1 131 4 133 7
7 7 43 -6 43 -16 0 -6 7 -7 16 -4 14 5 56 -8 106 -35 10 -5 25 -9 33 -9 9 0
18 -7 21 -15 4 -8 10 -12 15 -9 5 3 9 1 9 -5 0 -5 -4 -13 -10 -16 -16 -10 -12
-25 5 -19 8 4 15 1 15 -6 0 -6 7 -18 15 -26 20 -21 19 -38 -2 -30 -9 4 0 -9
20 -29 20 -20 37 -43 37 -51 0 -9 29 -45 65 -81 68 -68 74 -77 51 -86 -8 -3
-20 -15 -26 -26 -9 -17 -8 -20 5 -15 8 4 15 12 15 20 0 16 9 18 29 5 7 -5 10
-14 7 -20 -4 -6 -2 -11 4 -11 6 0 8 -4 5 -10 -11 -17 -25 -11 -25 11 0 21 -1
20 -21 -5 -16 -20 -26 -25 -45 -20 -13 3 -24 2 -24 -4 0 -5 10 -12 22 -15 40
-11 12 -18 -41 -11 -48 6 -66 23 -41 39 6 4 7 -1 3 -12 -5 -15 -4 -16 8 -5 12
11 11 17 -1 39 -8 15 -22 29 -30 31 -13 4 -13 3 -2 -10 9 -11 10 -18 2 -23 -6
-3 -7 -12 -3 -18 5 -9 3 -9 -8 -1 -8 6 -32 24 -54 41 -60 45 -216 71 -252 42
-8 -7 -35 -10 -71 -6 -37 3 -70 0 -89 -8 -17 -7 -34 -11 -36 -8 -8 7 -45 -6
-62 -23 -8 -9 -15 -11 -15 -5 0 19 -17 12 -23 -9 -4 -17 -9 -19 -32 -10 -14 5
-28 10 -29 10 -2 0 -1 -12 2 -26 4 -20 2 -25 -8 -19 -9 5 -11 4 -6 -3 4 -7 14
-12 23 -12 11 0 9 -5 -8 -19 -28 -22 -189 -35 -189 -15 0 6 -18 25 -39 42 -29
23 -50 32 -78 32 -21 0 -52 4 -68 9 -39 11 -75 -3 -75 -28 0 -15 -10 -23 -42
-31 -24 -6 -68 -21 -98 -33 -49 -21 -55 -26 -58 -56 -2 -22 4 -45 21 -69 14
-21 31 -55 37 -77 l13 -39 13 44 c8 25 14 53 14 63 0 13 9 17 39 17 61 0 103
-11 97 -26 -6 -16 16 -24 70 -24 42 0 44 1 44 29 l0 30 35 -15 c43 -18 46 -10
5 11 -17 9 -53 17 -79 18 -38 2 -47 5 -39 15 7 8 7 12 -1 12 -6 0 -16 -9 -23
-19 -12 -19 -12 -19 -23 2 -7 15 -25 24 -58 31 -56 10 -61 28 -15 52 34 18
132 15 211 -7 49 -13 80 -59 74 -111 -4 -28 0 -41 15 -55 19 -17 20 -17 39 7
15 19 18 35 14 63 -3 22 -1 37 5 37 5 0 10 -4 10 -9 0 -6 15 -7 34 -4 l33 5 7
-52 c8 -59 53 -160 92 -205 17 -19 24 -23 20 -11 -6 18 -5 18 21 1 27 -17 27
-17 -4 16 -31 33 -63 95 -63 121 0 7 12 -9 25 -37 l25 -50 -5 48 c-5 47 8 77
32 77 4 0 14 9 21 20 11 19 14 19 35 5 31 -20 153 -10 162 13 3 9 0 19 -7 23
-24 15 7 32 38 22 40 -13 40 -30 2 -48 l-33 -15 30 6 c64 12 80 11 93 -7 13
-19 40 -16 54 5 5 7 8 7 8 -2 0 -7 3 -11 8 -9 13 8 52 -12 52 -27 0 -21 32
-30 42 -11 5 8 13 13 18 10 10 -6 60 15 60 25 0 3 -5 11 -11 17 -12 12 -4 33
12 33 5 0 9 -7 9 -16 0 -8 5 -12 10 -9 6 3 11 1 11 -4 1 -6 3 -15 4 -21 1 -5
3 -18 4 -27 1 -15 3 -15 10 -4 7 10 9 7 8 -12 -1 -15 -5 -27 -9 -27 -10 0 -11
-34 -2 -43 4 -3 24 21 45 53 21 33 41 60 44 60 4 0 3 -5 -1 -11 -5 -8 1 -10
18 -6 27 7 38 -5 38 -45 0 -13 -5 -18 -13 -15 -8 3 -20 1 -28 -4 -12 -8 -11
-12 5 -24 19 -14 19 -15 0 -21 -10 -4 -21 -8 -24 -10 -3 -1 -6 5 -6 14 -1 9
-5 26 -9 36 -6 15 -5 17 5 11 9 -6 11 -4 5 4 -13 23 -28 -4 -15 -29 10 -18 9
-22 -8 -27 -12 -3 -19 -13 -19 -29 0 -13 2 -22 6 -20 9 6 7 -47 -2 -61 -5 -7
-5 -13 0 -13 4 0 9 -12 10 -26 1 -19 -2 -23 -10 -15 -16 16 -27 14 -27 -5 0
-8 5 -12 10 -9 6 3 10 1 10 -4 0 -6 -7 -11 -16 -11 -8 0 -13 -4 -10 -9 4 -5
-12 -23 -35 -39 -35 -26 -44 -29 -61 -19 -16 9 -22 9 -25 0 -3 -7 -13 -13 -23
-13 -22 0 -39 -22 -22 -28 7 -2 10 -8 7 -13 -3 -5 -1 -17 4 -28 9 -15 7 -20
-12 -25 -14 -4 -18 -9 -11 -13 6 -5 10 -21 9 -38 -1 -16 3 -40 8 -53 8 -16 7
-26 -2 -35 -9 -9 -11 -6 -9 12 4 31 -18 39 -25 9 -5 -18 -9 -20 -19 -10 -18
18 -38 14 -38 -8 0 -11 -4 -20 -9 -20 -5 0 -12 -17 -16 -37 -4 -21 -12 -41
-18 -45 -9 -6 -8 -11 3 -18 13 -8 8 -14 -11 -12 -11 2 -5 -52 6 -60 6 -5 5 -8
-4 -8 -7 0 -11 -6 -7 -15 3 -9 0 -15 -9 -15 -8 0 -15 -7 -15 -15 0 -18 -31
-20 -48 -3 -9 9 -12 8 -12 -8 0 -11 -7 -30 -16 -42 -13 -18 -19 -21 -30 -11
-9 7 -14 8 -14 1 0 -6 5 -14 10 -17 17 -10 2 -24 -20 -18 -16 4 -19 2 -14 -11
4 -11 1 -16 -10 -16 -9 0 -16 -6 -16 -12 -1 -7 -7 1 -14 17 -12 26 -15 27 -21
12 -6 -14 -10 -15 -21 -6 -11 9 -14 8 -14 -2 0 -12 -2 -12 -9 -1 -7 11 -9 11
-14 -2 -4 -9 -13 -16 -21 -16 -8 0 -20 -8 -25 -17 -10 -17 -10 -17 -11 0 0 20
-16 23 -23 3 -7 -16 -47 -28 -47 -13 0 6 -3 7 -7 3 -4 -4 -8 -14 -8 -23 0 -25
-33 -41 -45 -23 -8 13 -10 12 -10 -2 0 -10 -5 -18 -10 -18 -6 0 -8 11 -4 26 5
19 4 25 -5 20 -6 -4 -11 -13 -11 -19 0 -7 -11 -12 -25 -12 -30 0 -31 5 -7 36
11 13 21 34 24 46 5 19 3 21 -11 14 -9 -5 -17 -19 -18 -32 -1 -12 -7 -27 -14
-33 -9 -8 -11 -7 -6 5 4 13 1 16 -15 11 -17 -4 -18 -6 -5 -13 16 -9 12 -59 -5
-59 -5 0 -7 4 -4 9 4 5 3 16 0 25 -5 14 -9 14 -37 0 -29 -16 -32 -16 -49 6
-10 12 -18 28 -18 36 0 8 -5 14 -11 14 -22 0 0 -82 31 -117 17 -19 30 -30 30
-26 0 4 5 0 11 -9 5 -10 15 -18 20 -18 6 0 7 5 3 11 -4 7 -1 10 7 7 8 -2 16
-18 17 -34 2 -16 8 -34 13 -40 6 -8 4 -14 -6 -18 -13 -5 -16 -19 -13 -73 1
-38 8 -72 16 -80 7 -7 9 -13 4 -13 -6 0 -12 -6 -15 -14 -4 -11 1 -14 20 -13
25 2 27 -1 38 -67 9 -54 9 -69 -1 -73 -7 -2 -10 -11 -8 -18 3 -7 0 -16 -6 -20
-8 -5 -7 -12 4 -23 8 -10 14 -21 13 -27 -1 -5 11 -9 27 -10 46 0 41 -21 -9
-40 -25 -10 -45 -22 -45 -26 0 -12 2 -12 39 7 17 9 38 13 46 10 23 -8 18 -36
-6 -36 -12 0 -19 -5 -16 -12 2 -7 11 -12 21 -10 31 5 20 -46 -14 -63 -38 -20
-49 -59 -26 -98 16 -28 15 -30 -1 -42 -15 -11 -19 -11 -26 1 -5 9 -4 21 2 28
14 16 2 29 -14 16 -9 -8 -15 -5 -19 7 -4 11 -1 22 8 29 22 16 2 121 -28 149
-12 11 -29 31 -39 45 l-18 25 3 -31 c1 -19 7 -30 13 -28 7 3 11 -10 11 -36 -1
-22 -3 -40 -7 -40 -5 0 -43 115 -53 165 -5 22 -4 26 4 15 8 -13 10 -13 10 1 0
9 -7 22 -15 29 -8 7 -12 16 -9 21 3 5 0 18 -6 30 -9 15 -9 24 -1 32 6 6 11 22
11 36 0 23 11 66 31 119 5 12 5 22 0 22 -14 0 -33 -28 -26 -40 3 -5 -1 -10
-10 -10 -9 0 -33 -9 -55 -20 -47 -24 -57 -25 -40 -5 11 13 10 14 -4 9 -18 -7
-20 -13 -6 -34 8 -12 11 -12 28 3 27 25 33 21 16 -10 -12 -25 -12 -29 1 -39
21 -15 19 -24 -5 -24 -23 0 -32 -17 -49 -85 -7 -27 -15 -57 -18 -65 -6 -17
-10 -61 -5 -56 2 2 15 1 30 -3 24 -7 27 -12 28 -55 0 -33 -3 -45 -12 -42 -9 4
-10 -3 -4 -26 7 -23 5 -34 -9 -50 -12 -12 -21 -16 -26 -9 -3 6 -13 11 -22 11
-13 0 -13 -3 -2 -18 11 -14 11 -15 -1 -4 -21 18 -50 15 -50 -5 -1 -17 -1 -17
-11 0 -12 21 -33 23 -25 2 3 -8 1 -15 -5 -15 -6 0 -7 -5 -4 -10 3 -6 2 -10 -4
-10 -5 0 -18 -3 -28 -7 -12 -4 -10 0 7 14 21 18 22 23 11 37 -7 9 -17 13 -22
10 -5 -3 -9 1 -9 9 0 15 -26 30 -39 23 -4 -3 -13 5 -21 17 -12 20 -12 21 3 8
10 -7 17 -10 17 -6 0 4 7 2 15 -5 12 -10 15 -10 15 4 0 9 5 16 10 16 6 0 10 5
10 11 0 5 -3 8 -8 5 -4 -2 -13 7 -19 21 -10 21 -10 23 3 13 11 -10 14 -10 14
-1 0 7 5 9 13 5 9 -6 9 -4 -1 8 -11 14 -8 17 25 24 21 4 41 8 46 9 4 2 18 3
32 4 26 1 36 21 11 21 -8 0 -18 4 -21 10 -3 5 0 7 8 4 8 -3 18 -1 22 5 3 6 -2
11 -12 11 -17 1 -17 1 0 11 9 5 17 19 17 29 0 10 4 21 9 24 5 3 11 20 13 37
l5 30 -118 -2 c-136 -4 -126 4 -159 -119 -11 -41 -20 -75 -20 -76 0 -1 19 -1
41 0 41 1 42 1 46 -37 2 -24 0 -36 -6 -32 -6 3 -7 13 -4 22 4 10 2 14 -7 11
-18 -6 -33 -60 -19 -69 7 -4 8 -9 1 -13 -5 -3 -12 1 -16 9 -3 9 -12 12 -23 9
-13 -4 -10 1 7 15 14 12 19 20 11 19 -8 -2 -17 5 -19 14 -2 13 1 16 12 12 9
-3 16 -2 16 4 0 14 -33 8 -38 -6 -2 -7 -8 -10 -13 -6 -5 3 -8 2 -7 -3 1 -4 -6
-32 -16 -61 -17 -49 -24 -117 -14 -128 5 -5 152 -6 294 -3 l102 3 6 59 c4 41
2 65 -6 75 -9 11 -9 14 -1 9 12 -8 29 45 19 62 -3 5 0 20 7 34 13 24 14 24 25
7 12 -19 8 -92 -7 -133 -4 -12 -9 -41 -10 -64 -1 -33 3 -44 18 -52 16 -9 21
-7 26 9 6 18 8 19 22 4 9 -9 27 -20 40 -25 28 -10 31 -33 3 -26 -20 5 -45 -15
-33 -26 3 -4 20 -7 37 -7 17 0 37 -4 45 -9 24 -15 2 -29 -40 -25 -39 4 -41 2
-34 -19 16 -53 28 -189 29 -339 1 -64 3 -119 6 -121 3 -3 68 -8 145 -10 140
-5 175 -11 175 -28 0 -10 -93 -7 -247 7 l-83 7 0 -26 c0 -14 -5 -29 -11 -33
-8 -4 -7 -9 2 -15 8 -5 10 -9 4 -9 -6 0 -10 -68 -11 -182 -1 -164 -3 -182 -19
-194 -13 -10 -15 -14 -5 -14 11 0 11 -3 2 -12 -7 -7 -12 -17 -12 -23 0 -5 5
-3 10 5 6 9 10 10 10 3 0 -6 -4 -14 -10 -18 -5 -3 -7 -12 -3 -20 3 -9 -1 -15
-9 -15 -11 0 -14 18 -11 93 3 111 22 247 34 247 5 0 9 9 9 21 0 11 -4 18 -8
15 -4 -2 -9 9 -10 26 -2 17 3 35 10 39 9 6 10 11 2 19 -6 6 -8 24 -6 41 3 23
7 27 14 18 7 -11 8 -9 6 6 -4 22 -53 44 -67 29 -5 -5 -11 -42 -12 -83 -1 -41
-5 -92 -9 -113 -5 -24 -3 -47 6 -63 7 -14 9 -23 4 -20 -6 4 -11 -11 -12 -32
-1 -21 -2 -58 -4 -83 -1 -25 -5 -58 -9 -73 -4 -16 -8 -47 -8 -69 -1 -34 3 -43
22 -49 16 -6 23 -5 27 6 4 8 12 15 20 15 15 0 29 -43 19 -59 -8 -14 -38 -14
-51 -1 -14 14 -44 2 -44 -17 0 -13 9 -15 45 -10 27 4 45 3 45 -3 0 -6 13 -10
28 -10 19 0 29 -5 29 -15 0 -8 -4 -15 -9 -15 -4 0 -8 6 -8 13 0 8 -3 8 -8 1
-4 -6 -15 -13 -25 -17 -15 -6 -18 -17 -16 -67 1 -33 -1 -63 -4 -67 -4 -3 -7
-22 -7 -40 0 -19 -7 -47 -15 -63 -13 -25 -13 -29 1 -34 9 -3 123 -6 254 -6
l239 0 4 48 3 47 2 -48 2 -48 98 3 c68 2 96 7 95 15 -2 9 6 8 30 -1 21 -9 84
-14 190 -15 l157 -1 1 28 c0 15 0 55 0 89 1 35 4 65 8 67 10 7 37 -12 28 -20
-4 -4 -1 -14 6 -22 9 -13 9 -14 0 -8 -9 5 -11 2 -6 -9 3 -10 0 -21 -8 -26 -11
-7 -10 -9 4 -9 17 0 17 -2 3 -22 -22 -31 -20 -45 4 -23 14 12 20 31 20 59 0
29 3 37 9 26 6 -8 7 -18 5 -22 -3 -5 -6 -27 -6 -51 0 -23 -3 -36 -5 -29 -3 6
-9 10 -14 6 -15 -9 -10 -21 11 -27 11 -3 20 -1 20 4 0 5 7 9 15 9 8 0 15 -4
15 -10 0 -5 5 -10 10 -10 6 0 10 8 10 18 0 9 4 13 8 7 7 -11 21 -15 65 -23 30
-5 29 -9 27 101 -1 48 2 67 11 67 10 0 10 3 1 12 -18 18 -15 28 10 28 21 0 21
0 3 14 -11 8 -25 12 -31 9 -7 -2 -15 0 -19 6 -4 7 0 8 11 4 12 -4 15 -3 10 5
-4 7 -1 12 7 12 13 0 32 28 24 36 -7 7 -64 5 -99 -4 -33 -8 -38 -7 -38 7 -1
14 -2 14 -11 -1 -8 -14 -18 -16 -52 -11 -23 3 -53 10 -67 16 -14 6 -32 10 -40
9 -8 -1 -2 5 15 12 26 12 43 13 130 1 11 -1 26 -3 33 -4 8 0 10 -6 6 -14 -4
-6 1 -4 12 5 21 18 64 21 64 3 0 -6 3 -6 8 1 4 6 15 13 25 17 11 4 17 17 17
36 0 31 13 47 30 36 5 -3 7 -12 4 -20 -4 -8 -10 -12 -15 -9 -5 3 -9 -1 -9 -9
0 -8 12 -18 26 -21 30 -8 67 1 59 15 -4 5 -3 9 0 9 10 0 35 -28 35 -39 0 -6 8
-11 18 -11 13 0 14 2 4 9 -24 14 14 18 172 15 137 -2 182 -11 163 -30 -4 -4
-89 -8 -189 -8 -156 -1 -183 -3 -183 -16 0 -13 25 -15 150 -18 83 -1 151 -7
153 -12 2 -5 12 -4 24 3 16 9 22 9 25 0 2 -7 12 -9 21 -6 15 6 15 4 4 -9 -11
-14 -39 -16 -195 -16 l-182 1 2 -26 c1 -17 -3 -27 -12 -27 -19 0 -30 -21 -16
-29 7 -5 13 -37 14 -79 1 -68 2 -72 24 -72 13 0 23 5 23 11 0 8 5 8 15 -1 13
-11 15 -8 15 16 0 22 -3 25 -10 14 -5 -8 -12 -11 -16 -7 -9 9 16 38 27 31 5
-3 16 -1 25 4 11 6 13 11 5 16 -6 4 -11 2 -11 -3 0 -6 -4 -11 -10 -11 -5 0
-10 6 -10 14 0 8 -4 17 -8 20 -5 3 -8 -3 -8 -12 1 -20 -17 -29 -23 -11 -2 7 1
9 10 4 11 -6 12 -5 2 6 -21 22 -16 56 8 54 11 -1 25 -8 30 -16 6 -10 9 -10 9
-1 0 6 5 12 11 12 6 0 8 -9 4 -20 -7 -22 -2 -24 24 -10 16 8 18 5 18 -18 0
-15 -2 -21 -4 -14 -7 20 -20 14 -27 -13 -4 -14 -11 -25 -16 -25 -6 0 -10 -6
-10 -14 0 -19 32 -22 229 -25 154 -2 171 0 181 16 10 16 11 16 6 1 -5 -17 31
-18 659 -18 526 0 665 3 665 13 -1 6 -10 55 -20 107 -13 63 -24 170 -30 315
-14 300 -26 393 -86 620 -33 125 -107 348 -140 420 -15 33 -26 67 -25 76 3 24
-91 111 -229 211 -89 65 -248 141 -281 134 -16 -3 -31 0 -35 6 -5 7 -2 9 9 5
11 -4 14 -2 11 8 -3 7 -22 20 -42 28 -20 8 -72 31 -114 51 -43 20 -81 35 -85
34 -5 0 -21 4 -36 10 -16 7 -33 12 -38 12 -6 0 -7 5 -4 10 4 6 3 10 -2 9 -19
-3 -46 2 -40 8 13 13 -48 34 -80 28 -20 -4 -33 -2 -33 5 0 5 6 10 13 10 6 0 4
5 -7 11 -13 8 -25 8 -43 0 -31 -14 -40 -14 -25 1 7 7 12 15 12 19 0 10 -119
51 -130 44 -5 -3 -26 3 -47 14 -21 12 -63 32 -94 45 -70 30 -101 67 -155 182
-23 50 -56 107 -74 128 -25 28 -31 43 -28 69 l3 33 -31 -15 c-21 -9 -30 -19
-26 -29 3 -8 -3 -21 -13 -28 -18 -13 -18 -14 2 -14 18 0 21 -6 20 -35 -1 -26
-6 -37 -21 -41 -19 -6 -19 -7 -2 -19 17 -13 16 -14 -3 -25 -16 -8 -21 -8 -21
2 0 9 -3 9 -10 -2 -6 -10 -4 -17 7 -24 13 -7 13 -10 2 -17 -11 -6 -11 -11 -2
-20 9 -9 7 -19 -12 -41 -30 -36 -30 -39 -5 -68 12 -13 18 -30 15 -38 -3 -7 -5
-16 -5 -18 0 -3 -4 -2 -10 1 -10 6 -14 -7 -11 -32 1 -7 -3 -13 -9 -13 -5 0
-10 -8 -10 -19 0 -10 -8 -29 -18 -42 -10 -13 -17 -34 -16 -47 1 -13 -6 -27
-17 -33 -10 -5 -16 -16 -13 -24 4 -9 0 -15 -9 -15 -9 0 -18 -13 -23 -32 -3
-18 -15 -39 -26 -47 -12 -8 -18 -21 -15 -32 3 -11 0 -19 -6 -19 -6 0 -7 -3 -4
-6 4 -4 -3 -20 -14 -35 -14 -21 -16 -29 -7 -29 8 0 4 -7 -8 -18 -12 -9 -25
-27 -28 -39 -4 -11 -13 -27 -21 -33 -8 -7 -15 -22 -15 -33 0 -11 -10 -31 -22
-44 -17 -18 -19 -26 -10 -32 10 -6 10 -11 -3 -21 -12 -10 -13 -16 -4 -27 9
-10 9 -17 1 -25 -7 -7 -12 -26 -12 -43 0 -43 -16 -65 -25 -35 -7 21 -8 21 -17
6 -6 -11 -6 -27 1 -47 6 -18 6 -29 0 -29 -5 0 -9 -4 -9 -10 0 -5 7 -6 17 -3
11 4 14 3 9 -5 -4 -7 -2 -12 5 -12 8 0 8 -4 -1 -15 -7 -8 -17 -15 -22 -15 -6
0 -6 6 1 14 10 11 8 16 -8 21 -11 3 -23 15 -26 26 -8 25 -22 24 -31 -3 -15
-46 -13 -58 10 -46 19 10 20 10 7 -5 -7 -10 -19 -17 -25 -17 -7 0 -34 -22 -61
-50 -27 -27 -44 -50 -38 -50 6 0 24 15 41 34 29 33 89 72 98 63 3 -2 -9 -10
-26 -17 -17 -7 -37 -21 -44 -31 -19 -27 -107 -92 -100 -74 3 8 11 15 18 15 7
0 7 3 -2 8 -9 6 -4 16 18 38 38 38 38 68 -1 105 -17 16 -33 29 -36 29 -8 0
-84 82 -80 87 2 2 -10 19 -28 39 -18 19 -32 46 -32 60 0 13 -13 40 -27 59 -15
19 -24 35 -20 35 3 0 -18 28 -48 63 -107 121 -194 262 -252 410 -22 55 -27 84
-27 154 0 47 2 87 5 90 8 8 80 -30 119 -63 24 -20 45 -30 55 -27 11 5 14 2 9
-10 -5 -14 -1 -15 26 -11 30 5 31 5 13 -10 -24 -19 -18 -26 25 -29 19 -1 39
-9 46 -17 10 -13 14 -13 30 4 17 18 17 18 -4 7 -17 -8 -22 -8 -27 5 -9 23 -7
26 6 17 7 -4 26 -6 43 -4 26 3 27 1 16 -13 -16 -20 -10 -20 33 -2 23 9 38 11
51 4 11 -7 20 -7 24 0 4 6 15 6 31 -1 14 -5 32 -11 40 -12 8 -2 29 -6 46 -10
21 -5 34 -3 39 6 6 9 3 10 -11 5 -14 -5 -16 -4 -7 5 13 13 36 2 30 -15 -3 -7
5 -11 22 -10 14 0 26 6 26 12 0 5 3 13 7 17 4 4 4 14 1 23 -5 14 -3 15 7 5 10
-10 11 -15 1 -27 -9 -11 -9 -16 0 -22 7 -4 9 -3 6 3 -4 6 4 18 18 27 23 15 25
15 25 1 0 -9 -4 -13 -10 -10 -5 3 -10 -1 -10 -10 0 -14 6 -12 31 9 17 14 34
24 39 21 5 -3 7 2 6 12 -2 9 12 30 31 46 18 16 33 38 33 49 0 10 4 17 8 14 5
-3 19 2 31 11 17 12 21 21 16 41 -5 22 -4 24 9 13 8 -7 12 -19 9 -27 -7 -20 8
-17 37 6 14 11 21 20 15 19 -32 -5 -38 1 -20 21 10 11 13 20 7 20 -7 0 -12 5
-12 11 0 5 5 7 10 4 6 -4 10 6 10 23 0 23 6 32 29 41 15 7 34 23 41 36 7 14
17 22 23 18 5 -3 6 3 3 15 -7 22 16 42 42 36 7 -1 8 0 2 3 -12 6 -13 33 -1 33
5 0 11 -5 13 -12 2 -6 10 -8 16 -4 17 10 15 26 -3 20 -8 -4 -16 -2 -16 2 -6
37 -5 53 2 48 4 -2 5 -12 2 -21 -5 -12 -2 -15 9 -11 10 4 20 -2 28 -20 12 -26
14 -24 32 53 10 44 20 92 21 107 1 14 4 25 6 22 2 -2 17 25 33 59 16 34 47 85
69 114 21 29 39 54 39 56 0 3 22 44 50 93 61 110 66 136 6 34 -24 -41 -54 -84
-67 -95 -12 -11 -19 -14 -15 -7 9 15 9 15 -34 2 -47 -14 -108 12 -117 49 -3
14 -11 29 -17 33 -8 5 -6 25 5 67 8 33 12 66 8 72 -5 8 -8 7 -12 -2 -5 -12 -7
-12 -15 0 -7 10 -6 21 3 35 12 16 12 23 2 35 -9 12 -9 13 1 7 8 -5 12 0 12 17
0 14 7 30 15 37 12 10 15 10 15 0 0 -7 11 -23 25 -36 36 -33 34 -72 -8 -161
-6 -13 -16 -23 -24 -23 -20 0 -16 -28 6 -40 17 -8 20 -6 26 18 4 18 15 31 33
38 15 6 36 27 47 47 l20 37 -23 16 c-26 18 -28 37 -7 57 8 8 11 17 8 21 -18
18 25 2 54 -20 36 -27 43 -58 16 -73 -10 -5 -14 -13 -10 -18 5 -4 22 7 38 25
21 24 29 42 29 71 0 43 -19 65 -65 75 -17 4 -44 16 -60 27 l-30 21 28 -6 c16
-4 27 -2 27 4 0 5 3 9 8 8 20 -4 42 17 42 41 0 37 13 56 27 39 17 -21 63 -165
63 -198 0 -49 -28 -103 -65 -128 -19 -12 -35 -27 -35 -32 0 -16 26 -11 53 10
14 11 30 20 35 20 6 0 14 10 17 21 9 27 8 195 0 209 -4 6 -1 26 5 44 9 27 8
42 -3 68 -12 29 -20 34 -52 36 -30 2 -44 -3 -67 -25 -31 -29 -51 -23 -42 14 9
34 53 47 97 28 20 -8 37 -11 37 -6 0 5 -12 14 -27 19 -16 6 -22 11 -15 11 45
3 91 -72 92 -146 0 -24 5 -43 11 -43 5 0 9 12 8 28 -4 39 12 165 23 178 5 7 9
38 9 70 0 33 1 77 1 99 2 70 -12 219 -21 228 -5 5 -7 16 -4 23 3 8 1 14 -5 14
-5 0 -10 10 -10 23 0 51 -6 87 -13 87 -4 0 -12 13 -17 30 -6 16 -44 80 -85
142 -62 94 -84 120 -133 152 -33 22 -76 52 -97 69 -35 27 -111 61 -247 108
-30 11 -84 22 -120 25 -36 3 -73 7 -82 10 -9 3 -81 7 -160 8 -141 4 -144 3
-205 -26z m967 -248 c0 -5 -2 -10 -4 -10 -3 0 -8 5 -11 10 -3 6 -1 10 4 10 6
0 11 -4 11 -10z m-741 -752 c28 -6 51 -15 51 -20 0 -12 -29 -9 -100 12 -51 15
-58 19 -33 19 17 1 54 -4 82 -11z m315 -12 c-4 -10 3 -16 23 -19 23 -3 22 -4
-9 -6 -39 -1 -47 6 -26 27 16 16 19 15 12 -2z m-519 -17 c22 -6 48 -17 58 -24
20 -14 15 -15 -95 -19 -24 0 -45 -4 -48 -7 -3 -3 -20 -9 -38 -12 -31 -6 -32
-6 -26 21 9 35 7 34 51 42 55 11 54 11 98 -1z m602 -5 c-3 -3 -12 -4 -19 -1
-8 3 -5 6 6 6 11 1 17 -2 13 -5z m-534 -71 c32 -20 -35 -26 -142 -13 -2 0 2 7
10 16 10 13 24 14 68 9 31 -4 59 -9 64 -12z m-103 -63 c0 -5 -2 -10 -4 -10 -3
0 -8 5 -11 10 -3 6 -1 10 4 10 6 0 11 -4 11 -10z m613 -77 c-5 -12 -3 -14 7
-8 9 5 11 4 6 -3 -4 -6 1 -24 11 -39 12 -19 14 -25 4 -18 -11 6 -13 4 -8 -9 4
-10 3 -15 -3 -11 -6 4 -10 12 -9 18 3 15 -12 50 -24 58 -11 8 -1 29 13 29 5 0
6 -7 3 -17z m-243 -512 c0 -5 3 -17 7 -27 4 -11 3 -15 -4 -11 -7 5 -9 0 -6
-13 6 -24 -9 -26 -28 -4 -10 13 -10 17 1 24 7 4 10 15 7 24 -4 10 -1 16 8 16
8 0 15 -4 15 -9z m561 -38 c-12 -20 -14 -14 -5 12 4 9 9 14 11 11 3 -2 0 -13
-6 -23z m-30 -70 c-12 -20 -14 -14 -5 12 4 9 9 14 11 11 3 -2 0 -13 -6 -23z
m-514 -15 c-3 -8 -6 -5 -6 6 -1 11 2 17 5 13 3 -3 4 -12 1 -19z m447 -112
c-19 -14 -19 -15 0 -22 18 -7 18 -8 2 -20 -15 -10 -16 -16 -6 -34 9 -17 9 -25
0 -34 -8 -8 -9 -6 -4 8 5 12 4 17 -3 13 -6 -4 -9 6 -7 28 1 20 -1 33 -6 30 -5
-3 -7 2 -6 11 2 16 23 34 40 34 6 0 1 -6 -10 -14z m-16 -208 c-6 -18 -28 -21
-28 -4 0 9 7 16 16 16 9 0 14 -5 12 -12z m4 -131 c-2 -45 -6 -84 -7 -85 -2 -2
-5 36 -7 86 -2 61 0 88 8 85 7 -2 9 -33 6 -86z m122 -123 c9 -8 16 -21 16 -27
0 -7 -5 -4 -11 5 -5 10 -17 22 -27 27 -9 6 -12 11 -5 11 6 0 19 -7 27 -16z
m-190 -22 c3 -5 -4 -16 -15 -25 -19 -17 -24 -11 -13 17 7 17 20 21 28 8z
m-324 -82 c0 -5 -2 -10 -4 -10 -3 0 -8 5 -11 10 -3 6 -1 10 4 10 6 0 11 -4 11
-10z m-190 -20 c0 -5 -5 -10 -11 -10 -5 0 -7 5 -4 10 3 6 8 10 11 10 2 0 4 -4
4 -10z m554 -185 c-4 -8 -11 -15 -16 -15 -6 0 -5 6 2 15 7 8 14 15 16 15 2 0
1 -7 -2 -15z m17 -55 c31 -17 22 -25 -30 -25 -43 0 -47 2 -37 18 12 19 38 22
67 7z m-1 -66 c14 -8 18 -13 10 -11 -8 2 -39 1 -67 -3 -54 -7 -62 -3 -41 18
17 17 68 14 98 -4z m-170 -143 c-18 -54 -55 -108 -43 -63 3 12 9 22 14 22 5 0
8 3 7 8 -3 8 33 94 38 89 1 -1 -6 -26 -16 -56z m75 26 c11 -7 21 -18 23 -25 1
-8 -2 -11 -8 -7 -18 11 -11 -8 13 -33 22 -24 22 -24 -17 2 -21 14 -47 26 -57
26 -22 0 -23 4 -9 31 12 22 26 23 55 6z m803 -73 c2 -21 0 -35 -4 -32 -10 10
-17 81 -7 75 5 -3 10 -23 11 -43z m-2034 -40 c3 -8 2 -12 -4 -9 -6 3 -10 10
-10 16 0 14 7 11 14 -7z m1104 -55 c-18 -16 -53 -38 -77 -49 -24 -11 -41 -23
-38 -26 3 -3 11 -2 18 2 7 4 24 9 37 10 13 2 32 13 43 25 26 30 37 15 13 -18
-11 -15 -39 -32 -64 -39 -58 -18 -60 -17 -60 5 0 23 54 71 81 71 10 0 19 5 19
11 0 6 -7 9 -15 5 -20 -7 -19 -3 5 19 20 18 21 18 15 -1 -4 -12 3 -8 22 14 21
24 29 28 31 17 2 -9 -11 -29 -30 -46z m-838 -22 c0 -16 5 -38 11 -50 7 -15 2
-13 -15 8 -15 17 -24 35 -22 42 3 6 1 27 -4 45 l-10 33 20 -25 c11 -14 20 -38
20 -53z m1768 38 c1 -19 -2 -35 -6 -35 -7 0 -9 57 -3 68 5 9 8 -3 9 -33z
m-2411 9 c-3 -3 -12 -4 -19 -1 -8 3 -5 6 6 6 11 1 17 -2 13 -5z m3191 -74 c-2
-7 -10 1 -17 16 -12 27 -11 28 4 12 10 -9 16 -21 13 -28z m-3071 -5 c0 -8 -4
-12 -9 -9 -5 3 -6 10 -3 15 9 13 12 11 12 -6z m523 -84 c9 -9 16 -21 16 -28
-1 -18 -57 -83 -67 -77 -5 3 -7 10 -3 15 3 6 -4 13 -15 16 -15 4 -19 9 -11 17
5 7 9 26 9 42 0 64 1 66 30 47 14 -9 33 -24 41 -32z m2578 30 c3 -8 -1 -12 -9
-9 -7 2 -15 10 -17 17 -3 8 1 12 9 9 7 -2 15 -10 17 -17z m-2680 1 c13 11 15
10 9 -5 -4 -10 -7 -26 -7 -35 0 -22 -16 -3 -24 28 -3 14 -3 19 0 12 5 -10 9
-10 22 0z m825 -23 l22 0 -22 -11 c-13 -6 -23 -15 -23 -20 0 -4 -4 -8 -10 -8
-5 0 -7 7 -4 15 4 8 1 15 -5 15 -8 0 -7 6 1 20 10 17 14 18 16 5 2 -8 13 -15
25 -16z m567 16 c0 -8 -7 -15 -15 -15 -8 0 -15 7 -15 15 0 8 7 15 15 15 8 0
15 -7 15 -15z m460 -30 c0 -8 -4 -15 -10 -15 -5 0 -10 7 -10 15 0 8 5 15 10
15 6 0 10 -7 10 -15z m514 3 c-5 -8 -2 -9 10 -5 10 4 15 3 11 -3 -3 -6 -21
-10 -38 -9 -18 0 -26 3 -18 6 11 5 11 7 0 14 -10 6 -6 9 14 9 19 0 26 -4 21
-12z m-308 -20 c-9 -5 -22 -7 -29 -4 -7 2 -4 5 6 5 10 1 15 5 12 11 -4 6 1 7
11 3 15 -6 15 -7 0 -15z m71 16 c-3 -3 -12 -4 -19 -1 -8 3 -5 6 6 6 11 1 17
-2 13 -5z m138 -6 c2 -2 -14 -4 -35 -5 -22 -1 -40 2 -40 8 0 9 66 7 75 -3z
m165 8 c0 -3 -4 -8 -10 -11 -5 -3 -10 -1 -10 4 0 6 5 11 10 11 6 0 10 -2 10
-4z m25 -16 c-3 -5 -11 -10 -16 -10 -6 0 -7 5 -4 10 3 6 11 10 16 10 6 0 7 -4
4 -10z m-1072 -25 c-7 -19 -33 -20 -33 -1 0 15 20 26 32 19 4 -2 5 -10 1 -18z
m1117 10 c0 -2 -9 -3 -19 -2 -11 0 -18 5 -15 9 4 6 34 0 34 -7z m30 5 c0 -5
-5 -10 -11 -10 -5 0 -7 5 -4 10 3 6 8 10 11 10 2 0 4 -4 4 -10z m-1230 -10 c0
-12 -28 -25 -36 -17 -9 9 6 27 22 27 8 0 14 -5 14 -10z m550 -36 c0 -8 -7 -14
-15 -14 -15 0 -21 21 -9 33 10 9 24 -2 24 -19z m-115 6 c3 -5 2 -10 -4 -10 -5
0 -13 5 -16 10 -3 6 -2 10 4 10 5 0 13 -4 16 -10z m405 -5 c0 -12 -19 -12 -23
0 -4 9 -1 12 9 8 7 -3 14 -7 14 -8z m37 9 c-3 -3 -12 -4 -19 -1 -8 3 -5 6 6 6
11 1 17 -2 13 -5z m53 2 c0 -2 -7 -6 -15 -10 -8 -3 -15 -1 -15 4 0 6 7 10 15
10 8 0 15 -2 15 -4z m80 -5 c0 -6 -5 -13 -12 -17 -7 -4 -8 -3 -4 4 5 8 -2 10
-25 5 -23 -4 -30 -3 -25 5 9 14 66 16 66 3z m59 6 c-2 -1 -12 -9 -21 -16 -15
-12 -18 -11 -18 3 0 10 8 16 22 16 12 0 19 -1 17 -3z m31 -13 c0 -8 -5 -12
-10 -9 -6 4 -8 11 -5 16 9 14 15 11 15 -7z m-360 -9 c0 -2 -9 -3 -19 -2 -11 0
-18 5 -15 9 4 6 34 0 34 -7z m390 5 c0 -5 5 -10 11 -10 5 0 7 5 4 10 -8 12 -3
13 29 0 14 -5 26 -15 26 -21 0 -7 -7 -8 -17 -4 -10 4 -28 7 -40 7 -11 -1 -24
5 -27 13 -3 8 -1 15 4 15 6 0 10 -4 10 -10z m245 -15 c0 -28 -29 -25 -33 3 -3
19 0 23 15 20 10 -2 18 -12 18 -23z m-1906 -35 c0 -23 -1 -23 -9 -5 -5 11 -9
29 -9 40 -1 17 1 17 9 5 5 -8 9 -26 9 -40z m-535 25 c-4 -8 -11 -12 -16 -9 -6
4 -5 10 3 15 19 12 19 11 13 -6z m2296 5 c0 -5 -4 -10 -10 -10 -5 0 -10 5 -10
10 0 6 5 10 10 10 6 0 10 -4 10 -10z m-2610 -25 c0 -7 5 -16 10 -18 6 -3 5 -4
-1 -3 -7 1 -16 12 -20 25 -6 14 -5 20 1 16 6 -3 10 -12 10 -20z m389 -4 c-15
-5 -22 6 -14 19 6 9 10 9 16 -1 5 -8 4 -15 -2 -18z m-269 -21 c14 0 21 -51 9
-66 -10 -12 -9 -13 5 -8 12 5 16 0 16 -21 0 -18 4 -24 13 -19 7 4 9 3 4 -2 -5
-5 -20 -9 -33 -9 -21 -1 -27 7 -39 49 -8 27 -15 63 -15 79 0 26 1 27 16 13 8
-9 19 -16 24 -16z m2617 4 c10 -28 -13 -37 -29 -12 -15 22 -14 24 4 25 10 1
22 -5 25 -13z m-1297 -4 c0 -5 -3 -10 -7 -10 -5 0 -9 -17 -10 -37 -3 -57 -12
-83 -28 -83 -18 0 -18 -3 1 75 10 41 22 65 30 65 8 0 14 -4 14 -10z m464 -47
c-3 -27 -5 -60 -5 -74 1 -16 -5 -29 -15 -33 -13 -5 -14 1 -8 42 3 26 10 52 15
58 5 6 6 14 3 17 -4 3 -4 13 -1 22 12 29 17 15 11 -32z m-585 -84 c-17 -10
-34 0 -21 13 6 6 8 17 5 26 -4 10 -2 13 5 8 7 -4 13 -1 13 6 1 7 4 0 6 -16 3
-17 -1 -32 -8 -37z m1391 -4 c-7 -20 -14 -34 -17 -31 -3 2 1 20 8 40 17 46 25
38 9 -9z m-10 -54 c0 -5 -7 -12 -16 -15 -24 -9 -28 -7 -14 9 14 17 30 20 30 6z
m-2169 -46 c-17 -20 -31 -33 -31 -29 0 12 52 76 57 70 3 -3 -8 -21 -26 -41z
m-377 -21 c3 -8 2 -12 -4 -9 -6 3 -10 10 -10 16 0 14 7 11 14 -7z m337 -47
c-10 -9 -11 -8 -5 6 3 10 9 15 12 12 3 -3 0 -11 -7 -18z m776 -9 c-3 -8 -6 -5
-6 6 -1 11 2 17 5 13 3 -3 4 -12 1 -19z m20 0 c-3 -8 -6 -5 -6 6 -1 11 2 17 5
13 3 -3 4 -12 1 -19z m78 12 c3 -5 1 -10 -4 -10 -6 0 -11 5 -11 10 0 6 2 10 4
10 3 0 8 -4 11 -10z m8 -50 c-3 -12 -8 -19 -11 -16 -5 6 5 36 12 36 2 0 2 -9
-1 -20z m-914 -73 c-10 -22 -17 -25 -43 -21 -64 11 -76 15 -76 25 0 10 30 7
77 -6 16 -5 24 -1 33 15 16 30 24 19 9 -13z m825 24 c3 -4 24 -3 46 3 31 8 43
7 48 -1 5 -7 13 -9 21 -4 7 5 27 7 45 5 49 -6 215 -14 279 -13 33 0 57 -4 57
-10 0 -7 -67 -9 -202 -6 -194 4 -238 -1 -238 -26 0 -6 5 -7 10 -4 6 4 10 -5 8
-24 -1 -16 -5 -28 -9 -25 -13 8 -16 -20 -5 -49 7 -18 7 -30 1 -35 -14 -10 -17
-32 -5 -32 15 0 3 -252 -15 -346 -3 -11 -11 -21 -20 -21 -11 0 -13 7 -8 26 3
14 10 28 15 29 4 2 8 10 8 18 0 8 -6 11 -15 8 -10 -4 -14 -2 -11 7 3 8 7 58
10 113 2 54 8 101 12 105 5 3 9 40 9 81 -1 41 2 89 5 105 10 51 1 75 -25 75
-32 0 -38 -12 -37 -81 0 -32 -4 -56 -9 -53 -5 3 -9 -2 -9 -11 0 -9 4 -13 10
-10 6 3 7 -1 4 -9 -3 -9 -10 -16 -15 -16 -5 0 -9 -5 -9 -11 0 -5 5 -7 10 -4 6
4 10 -11 10 -37 0 -31 -3 -39 -10 -28 -6 9 -10 10 -10 3 0 -6 5 -15 11 -19 12
-7 6 -152 -9 -223 -7 -30 -9 -32 -21 -17 -11 13 -11 16 0 16 10 1 9 4 -3 11
-9 5 -15 15 -13 22 2 6 9 62 15 122 5 61 15 111 20 113 6 2 6 10 1 20 -10 21
-2 92 10 92 18 0 9 77 -11 103 -19 24 -20 26 -3 36 22 13 40 14 47 2z m-974
-11 c8 -5 11 -12 8 -16 -10 -9 -38 3 -38 16 0 12 10 13 30 0z m380 -11 c0 -10
-50 -12 -75 -3 -26 10 0 21 40 16 19 -2 35 -8 35 -13z m374 13 c3 -5 28 -6 55
-2 28 3 56 3 63 -1 7 -4 16 -3 21 4 6 8 7 8 4 -3 -3 -11 -22 -16 -83 -17 -43
-2 -86 -4 -94 -4 -37 -5 -70 2 -70 14 0 14 95 23 104 9z m819 -1 c17 -6 15 -8
-9 -21 -19 -10 -28 -12 -31 -4 -2 6 -15 9 -30 6 -18 -3 -24 -1 -19 7 4 6 11 9
15 7 4 -3 13 -1 21 5 17 10 28 10 53 0z m-1133 -16 c0 -9 -9 -15 -25 -15 -16
0 -25 6 -25 15 0 9 9 15 25 15 16 0 25 -6 25 -15z m130 5 c0 -12 -17 -12 -45
0 -17 7 -15 9 13 9 17 1 32 -3 32 -9z m55 0 c-3 -5 -15 -10 -26 -10 -10 0 -19
5 -19 10 0 6 12 10 26 10 14 0 23 -4 19 -10z m1228 -3 c4 -10 -9 -13 -54 -13
-32 0 -59 4 -59 9 0 5 10 7 23 3 17 -4 68 4 83 13 1 1 4 -5 7 -12z m275 -6
c12 -1 22 -6 22 -12 0 -10 -83 -11 -122 -1 -32 8 -9 19 34 17 24 -2 53 -3 66
-4z m162 -61 c0 -5 -2 -10 -4 -10 -3 0 -8 5 -11 10 -3 6 -1 10 4 10 6 0 11 -4
11 -10z m-2163 -102 c-3 -8 -6 -5 -6 6 -1 11 2 17 5 13 3 -3 4 -12 1 -19z
m288 -68 c3 -5 1 -10 -4 -10 -6 0 -11 5 -11 10 0 6 2 10 4 10 3 0 8 -4 11 -10z
m-564 -36 c3 -10 2 -25 -3 -31 -7 -9 -7 -13 1 -13 8 0 9 -6 3 -17 -5 -10 -9
-43 -10 -73 -1 -30 -6 -58 -10 -62 -4 -4 -21 1 -37 12 -17 11 -25 20 -18 20 8
0 12 22 13 68 0 58 5 115 9 118 11 7 46 -7 52 -22z m2649 7 c0 -5 -7 -14 -15
-21 -12 -10 -15 -10 -15 2 0 8 3 18 7 21 9 10 23 9 23 -2z m-2389 -66 c-8 -46
-9 -47 -10 -13 -1 34 8 73 15 66 2 -2 -1 -26 -5 -53z m1194 15 c-3 -47 -2 -46
-25 -25 -20 18 -28 41 -11 30 5 -3 13 0 17 6 3 6 0 15 -7 20 -10 6 -8 8 7 7
18 -2 21 -8 19 -38z m233 -25 c-1 -36 -5 -65 -9 -65 -4 0 -7 29 -7 65 0 36 5
65 10 65 5 0 8 -29 6 -65z m-1115 36 c4 -16 1 -18 -16 -12 -28 10 -34 31 -9
31 11 0 22 -8 25 -19z m302 0 c-2 -9 -4 -23 -5 -31 -1 -8 -6 -3 -12 13 -5 15
-14 24 -20 21 -7 -4 -6 -9 2 -14 8 -5 9 -13 4 -21 -10 -17 -13 -50 -3 -44 4 3
13 -3 20 -13 7 -9 9 -14 5 -10 -5 4 -17 -2 -27 -14 -25 -28 -24 -36 0 -14 18
17 19 17 23 -1 5 -25 -2 -53 -14 -53 -6 0 -7 8 -4 18 4 11 -1 8 -12 -7 -26
-32 -34 -15 -25 51 4 29 8 72 8 95 0 41 1 42 31 41 23 -1 31 -5 29 -17z m389
-7 c3 -8 2 -12 -4 -9 -6 3 -10 10 -10 16 0 14 7 11 14 -7z m36 6 c0 -5 -4 -10
-10 -10 -5 0 -10 5 -10 10 0 6 5 10 10 10 6 0 10 -4 10 -10z m61 -13 c-10 -9
-11 -8 -5 6 3 10 9 15 12 12 3 -3 0 -11 -7 -18z m1219 14 c0 -12 -20 -25 -27
-18 -7 7 6 27 18 27 5 0 9 -4 9 -9z m-2080 -27 c0 -8 -5 -12 -10 -9 -6 4 -8
11 -5 16 9 14 15 11 15 -7z m70 -20 c0 -6 -3 -26 -6 -44 -5 -23 -9 -28 -16
-18 -7 9 -8 5 -4 -13 5 -21 1 -28 -13 -32 -17 -4 -19 0 -14 27 2 17 4 45 4 62
0 28 3 32 24 30 14 0 25 -6 25 -12z m857 1 c6 -16 -23 -55 -40 -55 -6 0 -1 9
11 20 12 12 22 25 22 30 0 16 -18 11 -29 -7 -12 -20 -14 -13 -5 11 8 20 33 21
41 1z m-557 -15 c0 -5 -5 -10 -11 -10 -5 0 -7 5 -4 10 3 6 8 10 11 10 2 0 4
-4 4 -10z m500 6 c0 -3 -4 -8 -10 -11 -5 -3 -10 -1 -10 4 0 6 5 11 10 11 6 0
10 -2 10 -4z m-905 -38 c-4 -18 -11 -35 -17 -39 -7 -4 -7 -9 1 -13 18 -12 14
-49 -5 -42 -9 3 -22 6 -29 6 -9 0 -13 11 -13 31 1 23 7 33 25 40 13 5 23 12
22 16 -3 19 2 33 11 33 6 0 8 -13 5 -32z m984 -9 c2 -38 -11 -69 -30 -69 -4 0
-4 14 1 31 5 18 7 36 4 41 -5 7 12 38 20 38 1 0 3 -18 5 -41z m-203 -5 c-3 -8
-10 -13 -16 -9 -6 4 -5 13 3 26 13 21 23 8 13 -17z m-1005 -34 c-10 -24 -10
-24 -7 5 8 58 9 60 13 40 2 -12 -1 -32 -6 -45z m1179 30 c0 -5 -4 -10 -10 -10
-5 0 -10 5 -10 10 0 6 5 10 10 10 6 0 10 -4 10 -10z m-930 -4 c0 -3 -4 -8 -10
-11 -5 -3 -10 -1 -10 4 0 6 5 11 10 11 6 0 10 -2 10 -4z m904 -12 c3 -8 2 -12
-4 -9 -6 3 -10 10 -10 16 0 14 7 11 14 -7z m283 -15 c0 -21 -3 -26 -9 -16 -4
9 -5 22 -2 31 9 23 11 20 11 -15z m-1192 -9 c3 -5 1 -10 -4 -10 -6 0 -11 5
-11 10 0 6 2 10 4 10 3 0 8 -4 11 -10z m867 -12 c-7 -7 -12 -8 -12 -2 0 14 12
26 19 19 2 -3 -1 -11 -7 -17z m-808 -20 c-3 -4 -12 -8 -20 -8 -8 0 -14 4 -14
8 0 4 9 8 19 8 11 0 17 -4 15 -8z m-733 -93 c0 -5 -13 -11 -28 -12 -15 -1 -22
0 -14 4 11 5 11 7 0 15 -10 6 -6 8 14 6 15 -2 28 -7 28 -13z m177 5 c2 -3 6
-4 54 -13 28 -6 36 -12 31 -23 -5 -13 -17 -15 -72 -9 -36 3 -75 8 -86 10 -11
2 -28 4 -37 4 -19 1 -26 31 -8 31 6 0 10 -6 10 -12 0 -10 2 -10 8 -2 9 16 85
25 100 14z m232 -51 c0 -11 -4 -18 -10 -14 -5 3 -7 12 -3 20 7 21 13 19 13 -6z
m500 17 c0 -3 -4 -8 -10 -11 -5 -3 -10 -1 -10 4 0 6 5 11 10 11 6 0 10 -2 10
-4z m835 -6 c3 -5 1 -10 -4 -10 -6 0 -11 5 -11 10 0 6 2 10 4 10 3 0 8 -4 11
-10z m125 6 c0 -16 -14 -36 -26 -36 -16 0 -16 2 -8 24 5 14 34 24 34 12z m70
-6 c12 -7 10 -9 -8 -7 -12 0 -22 5 -22 9 0 11 12 10 30 -2z m40 6 c0 -3 -4 -8
-10 -11 -5 -3 -10 -1 -10 4 0 6 5 11 10 11 6 0 10 -2 10 -4z m-1250 -33 c0
-21 -3 -22 -66 -18 -73 6 -84 10 -84 30 0 11 17 13 75 12 70 -2 75 -3 75 -24z
m-205 7 c3 -5 1 -10 -4 -10 -6 0 -11 5 -11 10 0 6 2 10 4 10 3 0 8 -4 11 -10z
m-30 -10 c-3 -5 -10 -10 -16 -10 -5 0 -9 5 -9 10 0 6 7 10 16 10 8 0 12 -4 9
-10z m-475 -4 c0 -3 -4 -8 -10 -11 -5 -3 -10 -1 -10 4 0 6 5 11 10 11 6 0 10
-2 10 -4z m190 -11 c82 -14 82 -14 66 -30 -8 -8 -21 -13 -28 -10 -8 3 -39 8
-69 10 -119 9 -152 19 -133 38 7 6 110 2 164 -8z m193 -58 c-9 -15 -21 4 -15
25 5 21 6 21 12 2 4 -10 5 -22 3 -27z m1457 23 c0 -11 -7 -20 -15 -20 -8 0
-15 9 -15 20 0 11 7 20 15 20 8 0 15 -9 15 -20z m-1387 -10 c-3 -11 -7 -20 -9
-20 -2 0 -4 9 -4 20 0 11 4 20 9 20 5 0 7 -9 4 -20z m205 11 c34 -1 42 -4 42
-20 0 -19 -36 -36 -45 -20 -3 4 -13 5 -21 2 -19 -7 -64 16 -64 32 0 6 10 11
23 9 12 -1 41 -3 65 -3z m434 -25 c19 -14 43 -27 54 -27 16 -1 16 -2 2 -6 -10
-2 -34 3 -54 13 -27 13 -41 15 -53 7 -18 -11 -111 11 -122 29 -4 6 -9 5 -13
-3 -4 -10 -7 -11 -12 -2 -3 7 -12 9 -21 6 -12 -5 -14 -3 -8 7 6 9 31 11 100 8
80 -4 97 -9 127 -32z m46 5 c3 -8 -1 -12 -9 -9 -7 2 -15 10 -17 17 -3 8 1 12
9 9 7 -2 15 -10 17 -17z m-633 -21 c-11 -12 -16 -30 -13 -49 2 -17 1 -28 -4
-25 -12 8 -10 68 4 82 20 20 32 13 13 -8z m1682 14 c-3 -3 -12 -4 -19 -1 -8 3
-5 6 6 6 11 1 17 -2 13 -5z m-2032 -13 c3 -5 1 -12 -5 -16 -6 -4 -8 -11 -5
-16 4 -5 3 -9 -2 -9 -4 0 -9 -30 -10 -67 -3 -63 -19 -105 -30 -75 -3 6 -10 9
-15 6 -7 -4 -8 -2 -4 5 4 6 9 26 12 44 2 23 1 28 -6 17 -5 -8 -10 -13 -11 -10
-5 28 -4 48 3 44 4 -3 8 -2 9 3 0 4 2 16 4 26 2 10 -1 14 -8 10 -7 -4 -8 0 -4
11 4 10 7 22 7 27 0 12 57 12 65 0z m1883 2 c-10 -2 -26 -2 -35 0 -10 3 -2 5
17 5 19 0 27 -2 18 -5z m-198 -13 c0 -5 -9 -10 -20 -10 -11 0 -20 5 -20 10 0
6 9 10 20 10 11 0 20 -4 20 -10z m-1240 -28 c0 -20 -27 -62 -40 -62 -13 0 -6
26 13 45 10 10 16 24 13 32 -3 8 -1 11 4 8 6 -3 10 -14 10 -23z m1055 18
c-167 -14 -315 -15 -315 -2 0 5 91 8 203 9 162 0 184 -1 112 -7z m128 3 c-7
-2 -19 -2 -25 0 -7 3 -2 5 12 5 14 0 19 -2 13 -5z m-1236 -29 c-9 -9 -28 6
-21 18 4 6 10 6 17 -1 6 -6 8 -13 4 -17z m93 -20 c0 -14 -7 -27 -15 -30 -11
-5 -13 -10 -5 -19 8 -9 6 -14 -5 -19 -8 -3 -15 -12 -15 -21 0 -8 -4 -15 -10
-15 -6 0 -6 9 0 24 5 13 7 26 4 28 -2 3 2 18 11 34 8 16 15 35 15 42 0 7 5 10
10 7 6 -3 10 -17 10 -31z m48 27 c10 -6 11 -18 4 -49 -5 -22 -7 -43 -5 -46 3
-3 -4 -4 -16 -3 -27 2 -32 16 -19 66 11 43 15 46 36 32z m-316 -41 c3 -16 1
-30 -4 -30 -4 0 -8 14 -8 30 0 17 2 30 4 30 2 0 6 -13 8 -30z m686 10 c-7 -11
-15 -15 -17 -9 -2 6 3 15 10 20 20 12 21 11 7 -11z m-521 -26 c-3 -3 -12 -4
-19 -1 -8 3 -5 6 6 6 11 1 17 -2 13 -5z m559 -34 c2 -16 -1 -30 -6 -30 -6 0
-10 17 -10 37 0 42 11 38 16 -7z m734 -12 c0 -18 -2 -20 -9 -8 -6 8 -7 18 -5
22 9 14 14 9 14 -14z m-1375 -18 c3 -5 1 -10 -4 -10 -6 0 -11 5 -11 10 0 6 2
10 4 10 3 0 8 -4 11 -10z m600 0 c3 -5 2 -10 -4 -10 -5 0 -13 5 -16 10 -3 6
-2 10 4 10 5 0 13 -4 16 -10z m400 -10 c-10 -11 -22 -20 -27 -20 -10 0 24 38
36 39 5 1 1 -8 -9 -19z m-765 -8 c0 -7 -8 -12 -17 -10 -24 4 -27 24 -3 24 11
0 20 -6 20 -14z"/>
<path d="M2416 1514 c-9 -24 -7 -28 9 -14 17 14 20 30 6 30 -5 0 -12 -7 -15
-16z"/>
<path d="M2420 1486 c-23 -14 -30 -22 -19 -24 22 -4 69 22 61 34 -5 7 -20 3
-42 -10z"/>
<path d="M2980 564 c0 -8 5 -12 10 -9 6 4 8 11 5 16 -9 14 -15 11 -15 -7z"/>
<path d="M3165 3870 c-4 -7 -3 -16 2 -21 12 -12 43 -1 43 14 0 6 -3 7 -7 4 -3
-4 -12 -2 -19 4 -8 7 -14 7 -19 -1z"/>
<path d="M3871 3534 c0 -11 3 -14 6 -6 3 7 2 16 -1 19 -3 4 -6 -2 -5 -13z"/>
<path d="M2530 3374 c0 -3 5 -14 11 -25 22 -42 -45 -78 -143 -78 -165 1 -163
1 -170 -35 -2 -13 9 -25 37 -41 22 -13 45 -36 52 -52 10 -26 16 -30 50 -27 21
1 38 3 38 4 0 1 11 3 25 4 14 0 30 4 36 8 7 5 14 0 17 -12 4 -17 12 -19 46
-16 23 2 43 0 46 -5 3 -4 13 -5 21 -2 17 6 64 -15 64 -29 0 -4 -26 -5 -57 -1
-65 8 -116 8 -183 0 -25 -3 -49 -6 -55 -6 -20 -2 -37 -19 -30 -30 4 -8 11 -9
19 -2 16 13 133 8 147 -6 9 -9 15 -8 25 2 20 19 57 7 51 -17 -5 -17 -1 -18 46
-12 29 3 70 14 92 24 64 28 71 29 83 9 8 -13 9 -19 1 -19 -6 0 -9 -8 -7 -17 2
-10 8 -18 15 -18 6 0 15 -3 19 -7 15 -15 22 -7 27 30 8 63 -33 136 -95 168
-25 13 -28 13 -28 -1 0 -8 -4 -15 -10 -15 -5 0 -10 7 -10 15 0 23 -17 18 -23
-7 -6 -21 -7 -21 -26 -4 -11 10 -25 15 -30 11 -6 -3 -11 -2 -11 4 0 6 -7 8
-15 5 -9 -4 -15 0 -15 8 0 17 -47 41 -61 33 -5 -4 -9 -2 -9 3 0 5 15 17 34 27
37 20 50 48 36 75 -5 10 -7 19 -5 21 2 3 -10 12 -26 21 -16 9 -29 15 -29 12z
m120 -224 c0 -5 -5 -10 -11 -10 -5 0 -7 5 -4 10 3 6 8 10 11 10 2 0 4 -4 4
-10z m100 -80 c24 -15 4 -22 -42 -14 -42 8 -43 8 -13 15 17 3 32 7 35 8 3 0
12 -3 20 -9z"/>
<path d="M2668 3333 c12 -2 32 -2 45 0 12 2 2 4 -23 4 -25 0 -35 -2 -22 -4z"/>
<path d="M3075 3230 c3 -5 11 -10 16 -10 6 0 7 5 4 10 -3 6 -11 10 -16 10 -6
0 -7 -4 -4 -10z"/>
<path d="M2094 3192 c-22 -15 -36 -56 -35 -108 0 -49 16 -94 33 -94 11 0 30
39 33 67 4 40 28 55 98 60 74 6 93 24 46 43 -16 7 -29 15 -29 19 0 4 -8 7 -17
7 -10 1 -24 3 -32 5 -8 2 -25 -11 -38 -30 -17 -25 -23 -29 -23 -16 0 18 -1 18
-16 -1 -14 -18 -15 -17 -9 19 6 40 6 41 -11 29z"/>
<path d="M3595 3190 c3 -5 8 -10 11 -10 2 0 4 5 4 10 0 6 -5 10 -11 10 -5 0
-7 -4 -4 -10z"/>
<path d="M2165 3047 c-17 -13 -16 -16 14 -48 26 -27 34 -31 41 -19 6 8 10 21
10 29 0 8 7 23 17 33 15 17 14 18 -24 18 -21 0 -47 -6 -58 -13z"/>
<path d="M2270 3040 c0 -5 5 -10 11 -10 5 0 7 5 4 10 -3 6 -8 10 -11 10 -2 0
-4 -4 -4 -10z"/>
<path d="M2308 2943 c6 -2 18 -2 25 0 6 3 1 5 -13 5 -14 0 -19 -2 -12 -5z"/>
<path d="M2460 2908 c-19 -6 -30 -12 -24 -15 7 -2 27 3 45 11 39 17 29 19 -21
4z"/>
<path d="M2325 2840 c-11 -5 -15 -9 -10 -9 6 -1 19 -17 29 -36 21 -38 41 -48
31 -14 -6 18 -5 19 13 10 31 -17 40 8 12 29 -22 17 -23 18 -4 23 10 3 4 5 -16
5 -19 0 -44 -3 -55 -8z"/>
<path d="M2281 2804 c-7 -8 -11 -18 -7 -21 9 -10 36 6 36 22 0 19 -11 19 -29
-1z"/>
<path d="M2110 2775 c0 -5 5 -17 10 -25 5 -8 10 -10 10 -5 0 6 -5 17 -10 25
-5 8 -10 11 -10 5z"/>
<path d="M3430 2550 c0 -5 5 -10 11 -10 5 0 7 5 4 10 -3 6 -8 10 -11 10 -2 0
-4 -4 -4 -10z"/>
<path d="M3355 2520 c-3 -5 -1 -10 4 -10 6 0 11 5 11 10 0 6 -2 10 -4 10 -3 0
-8 -4 -11 -10z"/>
<path d="M3415 2380 c-3 -5 -1 -10 4 -10 6 0 11 5 11 10 0 6 -2 10 -4 10 -3 0
-8 -4 -11 -10z"/>
<path d="M1987 2133 c-3 -3 1 -12 9 -20 8 -9 18 -13 21 -10 3 3 -1 13 -10 21
-8 8 -17 12 -20 9z"/>
<path d="M2206 2129 c3 -6 0 -15 -7 -20 -10 -6 -11 -9 -1 -9 6 0 12 -7 12 -15
0 -8 -6 -14 -12 -12 -17 3 -23 -65 -9 -91 15 -27 50 -36 48 -11 -1 14 -4 15
-14 7 -8 -6 -17 -8 -20 -4 -4 4 -3 10 3 14 6 4 14 15 17 25 9 24 -3 127 -15
127 -5 0 -6 -5 -2 -11z"/>
<path d="M2985 2120 c4 -6 11 -8 16 -5 14 9 11 15 -7 15 -8 0 -12 -5 -9 -10z"/>
<path d="M1891 2080 l-45 -39 37 8 c20 5 39 6 42 3 9 -9 99 -2 110 9 5 6 4 9
-5 9 -8 0 -5 7 9 19 16 14 19 21 10 27 -7 4 -15 2 -17 -4 -2 -7 -13 -17 -24
-23 -15 -8 -19 -8 -14 0 11 18 -5 13 -21 -6 -8 -10 -12 -12 -8 -5 4 7 -1 12
-14 12 -14 0 -19 5 -15 15 9 21 5 19 -45 -25z"/>
<path d="M2984 2085 c-10 -8 -14 -14 -9 -15 15 0 40 18 34 24 -3 3 -14 -1 -25
-9z"/>
<path d="M3046 2054 c-5 -14 -4 -15 9 -4 17 14 19 20 6 20 -5 0 -12 -7 -15
-16z"/>
<path d="M1643 1976 c-107 -41 -149 -63 -139 -74 3 -2 18 5 34 17 34 24 59 27
59 7 0 -7 -7 -11 -16 -9 -17 4 -78 -43 -74 -58 2 -5 -4 -9 -13 -9 -8 0 -12 -5
-9 -10 3 -6 22 -8 40 -6 38 5 55 -9 35 -27 -10 -9 -11 -9 -6 1 15 26 -11 8
-47 -34 l-39 -43 26 -7 c14 -3 23 -10 20 -16 -3 -5 -12 -4 -20 3 -8 6 -18 9
-21 5 -4 -4 -1 -11 7 -16 11 -7 9 -9 -8 -7 -25 1 -27 7 -9 26 10 11 9 13 -5 8
-11 -4 -18 -1 -18 6 0 8 -3 8 -9 -2 -7 -11 -9 -11 -14 0 -3 8 -6 4 -6 -8 -1
-13 -6 -23 -12 -23 -6 0 -9 7 -5 15 6 17 -2 45 -14 45 -4 0 -7 -14 -6 -32 1
-27 -2 -31 -26 -32 -14 -1 -24 2 -22 6 3 4 -11 1 -31 -7 -19 -9 -35 -13 -35
-10 0 2 -27 -9 -60 -26 -33 -17 -58 -35 -55 -40 3 -5 -1 -6 -9 -3 -9 3 -16 1
-16 -6 0 -6 -4 -8 -10 -5 -5 3 -10 2 -10 -3 0 -5 -9 -12 -21 -15 -16 -4 -19
-10 -14 -28 6 -17 4 -21 -8 -16 -9 3 -18 1 -21 -6 -5 -9 -7 -9 -12 1 -5 10 -9
10 -20 1 -8 -6 -11 -15 -8 -20 3 -5 -5 -19 -18 -30 -21 -19 -20 -19 20 2 23
13 42 26 42 31 0 4 3 7 8 6 4 0 14 1 22 5 135 51 196 59 399 53 l179 -6 7 51
c5 33 3 55 -4 62 -6 6 -11 16 -11 22 0 5 5 3 10 -5 7 -11 11 -3 16 30 8 48 6
53 -13 56 -16 3 -16 -2 -3 -26 7 -13 6 -19 -4 -23 -10 -4 -12 0 -9 14 3 10 1
19 -5 19 -6 0 -10 9 -9 20 1 22 39 40 45 22 2 -7 12 -3 25 9 12 11 21 22 20
25 -2 2 7 29 18 59 11 31 18 62 15 70 -2 7 0 16 7 18 7 2 10 7 7 10 -3 3 -56
-14 -117 -37z m7 -21 c0 -2 -9 -9 -20 -15 -15 -8 -20 -8 -20 3 0 7 9 13 20 14
11 1 20 0 20 -2z m-124 -193 c-18 -16 -18 -16 -6 6 6 13 14 21 18 18 3 -4 -2
-14 -12 -24z m94 6 c0 -7 -5 -20 -11 -28 -9 -13 -10 -12 -5 3 3 9 1 17 -5 17
-6 0 -7 5 -4 10 9 14 25 12 25 -2z m-34 -33 c-1 -8 -7 -20 -14 -27 -13 -13
-54 -19 -46 -6 3 4 12 8 19 8 8 0 12 6 9 14 -3 8 2 16 13 19 10 3 19 5 20 6 1
0 0 -6 -1 -14z m-146 -29 c0 -3 -4 -8 -10 -11 -5 -3 -10 -1 -10 4 0 6 5 11 10
11 6 0 10 -2 10 -4z m-300 -116 c0 -5 -5 -10 -11 -10 -5 0 -7 5 -4 10 3 6 8
10 11 10 2 0 4 -4 4 -10z"/>
<path d="M2756 1961 c-3 -5 1 -11 9 -15 8 -3 15 -1 15 4 0 13 -18 22 -24 11z"/>
<path d="M2236 1922 c-4 -6 -2 -21 4 -33 15 -28 21 -20 12 16 -5 18 -11 25
-16 17z"/>
<path d="M1440 1860 c-28 -24 -31 -30 -15 -29 11 0 30 13 43 30 30 37 17 37
-28 -1z"/>
<path d="M1494 1802 c3 -5 0 -13 -6 -15 -9 -4 -10 -6 -1 -6 17 -1 25 16 12 25
-7 4 -9 3 -5 -4z"/>
<path d="M1396 1784 c-5 -14 -4 -15 9 -4 17 14 19 20 6 20 -5 0 -12 -7 -15
-16z"/>
<path d="M1351 1724 c0 -11 3 -14 6 -6 3 7 2 16 -1 19 -3 4 -6 -2 -5 -13z"/>
<path d="M1251 1548 c-36 -4 -90 -17 -120 -29 -81 -33 -181 -89 -181 -102 0
-8 4 -7 12 1 7 7 20 12 30 12 10 0 18 4 18 9 0 14 81 48 171 71 76 20 101 21
263 16 98 -3 182 -8 186 -11 12 -7 24 15 14 25 -12 11 -315 18 -393 8z"/>
<path d="M1676 1541 c-14 -22 38 -28 214 -25 102 2 188 3 193 4 4 0 7 4 7 9 0
6 -77 10 -185 10 -102 0 -194 2 -204 6 -11 3 -22 1 -25 -4z"/>
<path d="M2115 1530 c-8 -12 20 -24 35 -15 5 3 10 10 10 16 0 12 -37 12 -45
-1z"/>
<path d="M1264 1488 c-98 -8 -160 -27 -236 -73 -31 -19 -61 -35 -67 -35 -8 0
-9 -14 -4 -42 4 -24 7 -54 7 -68 0 -14 6 -31 13 -38 14 -14 18 -36 6 -29 -12
7 -3 -96 9 -110 7 -9 7 -13 -1 -13 -8 0 -10 -8 -5 -22 4 -13 8 -30 10 -38 6
-47 18 -80 28 -81 6 0 21 -2 34 -3 14 -2 29 5 37 18 8 11 18 16 22 12 10 -10
-36 -48 -48 -40 -5 3 -9 0 -9 -5 0 -6 -7 -11 -16 -11 -11 0 -14 -6 -9 -20 3
-11 2 -20 -2 -20 -5 0 -20 29 -32 65 -25 71 -36 84 -27 33 3 -18 3 -27 0 -20
-8 17 -27 15 -21 -3 4 -8 1 -17 -4 -21 -7 -4 -9 15 -6 55 3 44 0 67 -11 83 -9
11 -16 44 -18 72 -1 28 -5 71 -8 96 -3 30 -2 40 4 30 5 -8 10 -25 10 -37 0
-13 5 -23 10 -23 18 0 10 43 -17 89 -17 29 -28 40 -31 31 -2 -8 -12 -34 -23
-57 -10 -23 -16 -50 -12 -59 5 -12 3 -15 -6 -9 -10 5 -11 2 -6 -14 4 -13 2
-21 -5 -21 -6 0 -8 -11 -6 -25 3 -14 1 -23 -4 -20 -15 9 -20 -24 -21 -136 0
-73 3 -115 11 -124 7 -8 9 -15 5 -15 -3 0 3 -12 15 -27 21 -27 21 -27 1 -34
-18 -7 -19 -15 -15 -76 3 -37 12 -104 20 -148 8 -44 17 -93 20 -110 3 -16 9
-32 12 -35 4 -3 7 -18 6 -35 0 -16 3 -41 8 -54 5 -13 6 -26 3 -29 -10 -10 -33
66 -46 153 -7 50 -14 93 -15 98 -1 4 -2 16 -3 27 -2 34 -18 22 -25 -17 -20
-125 -20 -130 7 -148 14 -9 28 -24 32 -33 4 -12 3 -14 -5 -6 -12 12 -60 7 -60
-7 0 -5 4 -9 8 -9 5 0 19 -10 32 -22 14 -13 26 -22 27 -20 2 1 6 2 11 2 4 0 1
-4 -7 -9 -7 -5 -27 -5 -42 -1 -34 10 -37 -2 -8 -31 11 -11 18 -27 15 -35 -3
-9 -1 -12 4 -9 6 3 10 1 10 -4 0 -6 -5 -11 -11 -11 -5 0 -7 -5 -3 -12 12 -18
7 -100 -5 -108 -7 -3 -14 -19 -17 -34 -2 -16 -1 -25 5 -22 5 3 8 -2 7 -12 -1
-14 10 -17 68 -20 49 -2 72 1 77 10 7 10 9 10 9 1 0 -10 69 -13 305 -12 l305
0 2 22 c5 73 4 136 -2 132 -5 -3 -7 -13 -5 -23 3 -18 -12 -42 -26 -42 -4 0
-11 9 -14 20 -4 12 -11 17 -18 13 -9 -5 -9 -3 -1 8 19 25 24 49 10 43 -8 -3
-17 0 -22 7 -4 8 -3 10 4 5 18 -11 14 10 -4 28 -14 15 -14 16 1 16 15 0 15 2
-1 17 -16 16 -16 18 -1 21 9 2 14 9 11 16 -3 9 4 11 25 8 20 -3 28 -8 24 -18
-3 -8 0 -14 5 -14 6 0 13 8 15 18 3 11 5 7 6 -10 0 -14 -5 -29 -11 -31 -10 -4
-10 -6 -1 -6 15 -1 19 6 27 50 l6 36 -97 7 c-54 4 -151 8 -215 8 -113 1 -118
1 -118 22 0 20 5 21 72 19 349 -8 361 -8 365 5 4 9 -13 12 -59 13 -34 0 -72 3
-83 6 -20 5 -232 6 -270 1 -14 -2 -21 4 -23 19 l-3 22 220 -3 c151 -1 221 1
222 8 8 81 7 101 -2 118 -6 11 -7 18 -2 15 5 -4 10 0 10 7 0 18 -28 16 -51 -3
-19 -16 -19 -16 -1 10 12 15 26 24 36 22 26 -7 28 29 3 53 -13 12 -25 19 -28
16 -3 -3 -6 -2 -6 2 0 9 26 36 36 36 3 0 0 -8 -7 -17 -12 -15 -12 -16 2 -11
13 5 16 2 12 -13 -3 -11 0 -19 7 -19 6 0 11 10 10 23 -1 12 -1 24 0 27 9 26
28 220 25 262 -1 18 -8 23 -36 24 -19 1 -101 5 -183 8 -81 3 -152 8 -156 11
-5 3 -11 1 -14 -4 -3 -4 -19 -11 -36 -14 -23 -5 -28 -10 -23 -24 5 -14 3 -16
-7 -6 -9 9 -19 9 -32 2 -31 -17 -33 -3 -4 26 14 14 26 34 26 43 0 13 2 14 9 4
6 -11 56 -14 231 -13 122 0 225 2 227 5 3 3 4 60 2 128 -1 68 -3 168 -3 223
l-1 100 -65 2 c-200 7 -242 7 -316 1z m196 -38 c0 -5 -5 -10 -11 -10 -5 0 -7
5 -4 10 3 6 8 10 11 10 2 0 4 -4 4 -10z m-206 -11 c-3 -6 0 -15 7 -20 7 -4 11
-10 8 -13 -10 -10 -32 13 -26 28 4 9 9 16 12 16 4 0 3 -5 -1 -11z m-119 -19
c-5 -15 -3 -18 9 -14 9 3 16 1 16 -6 0 -6 -4 -9 -9 -5 -5 3 -12 1 -15 -4 -4
-5 -24 -8 -46 -6 -22 2 -40 -1 -40 -6 0 -5 3 -9 8 -9 4 0 8 -12 8 -26 2 -24 1
-24 -17 -8 -17 15 -19 15 -25 0 -3 -9 -3 -23 0 -32 4 -10 2 -13 -6 -8 -8 5 -9
-1 -4 -20 12 -48 -17 -24 -33 26 -13 42 -12 48 2 63 9 9 21 13 27 10 5 -3 10
-1 10 4 0 6 7 11 15 11 8 0 15 4 15 9 0 5 8 11 18 15 9 3 23 9 30 12 6 3 12 1
12 -5 0 -6 -6 -11 -14 -11 -28 0 -24 -15 5 -16 15 -1 26 2 24 7 -5 8 4 39 12
39 2 0 2 -9 -2 -20z m35 10 c0 -5 -2 -10 -4 -10 -3 0 -8 5 -11 10 -3 6 -1 10
4 10 6 0 11 -4 11 -10z m153 -2 c3 -8 -5 -14 -19 -14 -18 -2 -20 1 -11 12 15
17 24 17 30 2z m175 -13 c-3 -3 -9 2 -12 12 -6 14 -5 15 5 6 7 -7 10 -15 7
-18z m-275 1 c4 -10 1 -13 -8 -9 -8 3 -12 9 -9 14 7 12 11 11 17 -5z m282 -35
c3 -5 2 -12 -3 -15 -5 -3 -9 1 -9 9 0 17 3 19 12 6z m55 -16 c0 -8 -4 -15 -10
-15 -5 0 -7 7 -4 15 4 8 8 15 10 15 2 0 4 -7 4 -15z m31 -8 c-10 -9 -11 -8 -5
6 3 10 9 15 12 12 3 -3 0 -11 -7 -18z m-456 3 c-3 -5 -1 -10 5 -10 6 0 9 -4 6
-9 -4 -5 0 -11 6 -14 10 -3 10 -7 -1 -20 -7 -9 -18 -14 -24 -10 -6 3 -7 1 -3
-6 6 -9 11 -9 22 0 10 8 14 8 14 0 0 -18 -5 -26 -14 -23 -4 1 -18 -4 -31 -12
-21 -14 -22 -13 -17 10 3 18 0 24 -14 24 -17 0 -17 1 1 14 16 12 17 16 6 30
-10 12 -10 16 -1 16 6 0 14 -9 17 -20 3 -11 12 -20 20 -20 12 0 13 3 4 13 -6
8 -8 17 -4 20 3 4 1 7 -6 7 -7 0 -9 5 -6 10 3 6 11 10 16 10 6 0 7 -4 4 -10z
m390 -30 c-3 -5 -12 -10 -18 -10 -7 0 -6 4 3 10 19 12 23 12 15 0z m55 -10 c0
-5 -5 -10 -11 -10 -5 0 -7 5 -4 10 3 6 8 10 11 10 2 0 4 -4 4 -10z m-400 -10
c0 -5 -5 -10 -11 -10 -5 0 -7 5 -4 10 3 6 8 10 11 10 2 0 4 -4 4 -10z m74 -6
c5 -14 4 -15 -9 -4 -17 14 -19 20 -6 20 5 0 12 -7 15 -16z m369 -22 c-18 -5
-27 3 -18 17 4 7 10 7 20 -2 11 -10 11 -13 -2 -15z m-538 -12 c3 -5 1 -10 -4
-10 -6 0 -11 5 -11 10 0 6 2 10 4 10 3 0 8 -4 11 -10z m-23 -42 c-7 -7 -12 -8
-12 -2 0 14 12 26 19 19 2 -3 -1 -11 -7 -17z m-37 2 c-3 -5 -10 -10 -16 -10
-5 0 -9 5 -9 10 0 6 7 10 16 10 8 0 12 -4 9 -10z m172 -342 c-3 -8 -6 -5 -6 6
-1 11 2 17 5 13 3 -3 4 -12 1 -19z m-367 -12 c0 -3 -4 -8 -10 -11 -5 -3 -10
-1 -10 4 0 6 5 11 10 11 6 0 10 -2 10 -4z m239 -71 c13 -41 27 -78 41 -105 4
-8 16 -14 26 -12 18 2 18 2 2 -8 -16 -10 -16 -14 3 -63 27 -68 37 -77 35 -30
0 21 -5 41 -11 46 -6 4 -5 10 4 16 8 5 12 19 9 35 -3 14 -1 26 3 26 5 0 9 9 9
20 0 14 5 18 16 13 11 -4 12 -8 4 -13 -9 -6 -9 -9 -1 -15 8 -4 9 -11 3 -18
-16 -20 -23 -65 -12 -72 8 -5 8 -11 0 -20 -6 -7 -8 -19 -5 -27 7 -18 -20 -42
-35 -33 -15 9 -45 78 -76 175 -13 41 -29 83 -34 92 -12 21 -13 56 -2 43 4 -6
14 -28 21 -50z m135 20 c-4 -8 -8 -15 -10 -15 -2 0 -4 7 -4 15 0 8 4 15 10 15
5 0 7 -7 4 -15z m234 -101 c3 -16 1 -16 -7 -4 -9 13 -11 12 -11 -3 0 -28 19
-57 33 -51 8 3 18 -6 24 -19 10 -21 8 -27 -13 -45 l-25 -19 37 1 c26 2 39 8
44 21 4 13 9 15 14 7 9 -14 -10 -51 -27 -53 -7 -1 -28 -3 -48 -4 -32 -1 -36 1
-32 19 4 17 3 18 -6 6 -9 -13 -11 -12 -12 5 -1 11 0 26 1 34 1 8 -4 18 -12 23
-9 7 -5 8 12 4 24 -5 24 -5 5 11 -15 12 -17 17 -6 20 10 4 10 7 2 13 -15 9 -3
62 13 57 6 -2 12 -12 14 -23z m97 5 c-3 -4 -11 -7 -18 -5 -7 1 -9 1 -4 -1 13
-8 7 -30 -13 -48 -18 -16 -20 -16 -26 -1 -3 9 -10 13 -15 10 -5 -3 -6 2 -3 11
6 14 8 14 19 -2 12 -16 13 -15 8 9 -4 19 -10 25 -22 21 -11 -4 -13 -3 -6 5 19
20 92 21 80 1z m-135 1 c0 -5 -5 -10 -11 -10 -5 0 -7 5 -4 10 3 6 8 10 11 10
2 0 4 -4 4 -10z m200 6 c0 -2 -11 -6 -25 -8 -14 -3 -25 -1 -25 3 0 5 11 9 25
9 14 0 25 -2 25 -4z m-53 -43 c-4 -3 -2 -12 4 -20 9 -10 8 -13 0 -13 -7 0 -9
-4 -6 -10 3 -5 2 -10 -3 -10 -5 0 -9 14 -9 30 0 17 5 30 10 30 6 0 7 -3 4 -7z
m-29 -48 c1 -14 -2 -25 -8 -25 -16 0 -22 21 -10 35 16 19 15 19 18 -10z m53
-8 c-10 -9 -11 -8 -5 6 3 10 9 15 12 12 3 -3 0 -11 -7 -18z m-72 -38 c-16 -10
-23 -4 -14 10 3 6 11 8 17 5 6 -4 5 -9 -3 -15z m-104 -9 c3 -5 1 -10 -4 -10
-6 0 -11 5 -11 10 0 6 2 10 4 10 3 0 8 -4 11 -10z m-365 -22 c0 -6 10 -22 22
-35 12 -13 18 -26 14 -30 -8 -9 -42 33 -50 60 -2 9 0 17 5 17 5 0 9 -5 9 -12z
m154 -349 c4 -78 -12 -151 -23 -113 -4 10 -5 61 -3 113 4 112 22 112 26 0z
m103 66 c0 -8 -4 -12 -9 -9 -5 3 -6 10 -3 15 9 13 12 11 12 -6z m58 -5 c3 -5
13 -7 23 -4 14 5 15 4 2 -5 -11 -8 -11 -11 -2 -11 10 0 10 -3 0 -14 -11 -12
-14 -11 -19 8 -4 15 -12 20 -28 19 -13 -2 -20 1 -16 7 8 13 32 13 40 0z m-15
-39 c-5 -11 -15 -23 -22 -27 -7 -5 -8 -2 -3 7 21 37 44 55 25 20z m-90 -6 c-7
-9 -15 -13 -19 -10 -3 3 1 10 9 15 21 14 24 12 10 -5z m55 -30 c6 -28 8 -29
20 -11 8 10 18 16 23 15 5 -2 -5 -15 -22 -29 -16 -14 -27 -19 -23 -12 9 13 -2
16 -27 6 -9 -3 -16 -12 -16 -19 0 -8 -4 -17 -10 -20 -6 -4 -8 6 -6 24 2 17 -1
28 -5 25 -5 -3 -9 -1 -9 5 0 14 22 19 48 10 20 -8 22 -7 12 11 -6 11 -8 26 -4
32 4 7 9 8 10 3 1 -6 5 -23 9 -40z m99 30 c-4 -8 -11 -12 -16 -9 -6 4 -5 10 3
15 19 12 19 11 13 -6z m-36 -57 c-12 -18 -21 -42 -20 -53 4 -19 3 -20 -11 -1
-9 13 -19 16 -28 11 -8 -5 -5 1 5 13 11 12 21 20 24 17 3 -2 13 7 24 20 28 36
33 30 6 -7z m-407 -60 c8 -14 6 -16 -8 -11 -22 7 -43 32 -43 51 0 12 5 11 21
-4 11 -10 25 -27 30 -36z m434 19 c2 -20 -1 -24 -16 -20 -11 3 -16 10 -12 17
4 6 8 14 9 19 1 4 2 10 3 14 2 13 14 -7 16 -30z m22 11 c-3 -8 -6 -5 -6 6 -1
11 2 17 5 13 3 -3 4 -12 1 -19z m-133 -12 c-3 -9 -10 -16 -15 -16 -5 0 -4 9 3
20 14 22 21 20 12 -4z m-71 -1 c-3 -9 -8 -14 -10 -11 -3 3 -2 9 2 15 9 16 15
13 8 -4z m-252 -67 c28 -30 26 -47 -5 -35 -12 5 -41 67 -31 67 3 0 19 -15 36
-32z"/>
<path d="M1450 641 c0 -6 4 -13 10 -16 6 -3 7 1 4 9 -7 18 -14 21 -14 7z"/>
<path d="M1425 610 c-16 -7 -17 -9 -3 -9 9 -1 20 4 23 9 7 11 7 11 -20 0z"/>
<path d="M1675 1480 c-3 -5 -4 -14 -1 -18 6 -10 7 -132 4 -301 -2 -84 0 -118
10 -128 9 -9 45 -13 110 -14 108 -1 206 -5 267 -10 33 -3 40 0 39 14 -1 9 1
17 5 17 3 0 4 22 3 49 -3 34 0 50 10 53 9 4 14 -1 15 -13 1 -11 -2 -17 -8 -14
-13 9 -11 -9 3 -23 9 -9 9 -12 0 -12 -7 0 -12 -5 -12 -11 0 -5 5 -7 10 -4 6 3
10 -3 10 -14 0 -11 -5 -23 -11 -27 -8 -4 -3 -11 12 -19 26 -14 73 0 62 18 -10
17 -9 217 1 217 6 0 2 6 -7 13 -18 13 -28 69 -31 162 -1 55 -3 60 -25 63 -23
4 -23 2 -16 -50 4 -29 10 -57 12 -62 6 -8 6 -37 4 -145 -1 -46 -3 -52 -16 -41
-8 7 -15 27 -15 44 0 24 3 27 10 16 6 -9 10 -10 10 -3 0 7 -6 16 -14 20 -8 5
-16 34 -20 68 -3 33 -11 62 -17 63 -6 3 -5 10 3 20 11 13 11 14 -2 10 -16 -5
-20 -47 -9 -110 5 -30 3 -38 -10 -42 -13 -3 -81 -2 -191 3 -11 1 -16 13 -17
44 -6 131 -5 137 20 138 76 2 174 -4 189 -12 18 -10 19 -8 22 22 1 7 -64 12
-192 15 -107 2 -198 6 -202 9 -5 3 -11 1 -15 -5z m57 -62 c-9 -9 -12 -7 -12
12 0 19 3 21 12 12 9 -9 9 -15 0 -24z m49 -1 c-10 -9 -11 -8 -5 6 3 10 9 15
12 12 3 -3 0 -11 -7 -18z m-34 -133 c-3 -3 -12 -4 -19 -1 -8 3 -5 6 6 6 11 1
17 -2 13 -5z"/>
<path d="M905 1350 c-3 -5 -2 -10 4 -10 5 0 13 5 16 10 3 6 2 10 -4 10 -5 0
-13 -4 -16 -10z"/>
<path d="M950 1152 c0 -17 4 -33 8 -36 9 -5 7 52 -2 61 -3 4 -6 -8 -6 -25z"/>
<path d="M1677 992 c-3 -4 -8 -70 -11 -147 -4 -77 -10 -160 -13 -184 -5 -38
-3 -43 10 -38 11 4 14 2 11 -8 -3 -7 -12 -16 -20 -19 -9 -3 -12 -11 -9 -16 5
-8 12 -7 23 2 15 12 16 11 3 -4 -7 -10 -17 -15 -22 -13 -8 5 -12 -12 -23 -97
-5 -42 -10 -39 74 -43 246 -12 297 -17 341 -30 10 -4 19 -2 19 4 0 5 7 17 16
25 8 9 11 16 6 16 -8 0 -17 108 -13 155 6 73 23 160 33 173 10 12 10 14 1 8
-9 -5 -13 0 -13 18 0 14 3 27 8 29 4 3 6 40 4 84 l-3 78 -133 1 c-73 0 -167 4
-209 7 -42 4 -78 3 -80 -1z m49 -274 c-14 -23 -27 -23 -20 0 5 14 4 14 -5 2
-5 -8 -13 -11 -18 -7 -9 10 10 23 35 23 16 0 18 -3 8 -18z m317 -5 c5 -3 7
-18 4 -33 -3 -15 -1 -32 6 -39 8 -8 8 -11 -1 -11 -8 0 -11 -16 -8 -50 3 -56
-4 -68 -28 -44 -15 14 -16 13 -16 -8 -1 -20 -2 -21 -13 -8 -14 18 -77 15 -77
-3 0 -7 -4 -6 -10 3 -5 8 -15 15 -22 16 -7 0 -23 2 -36 2 -20 2 -22 6 -18 52
3 37 1 48 -7 43 -7 -4 -7 0 1 10 8 9 12 26 11 39 -6 44 5 49 109 42 53 -3 100
-8 105 -11z m-237 -21 c1 -7 0 -8 -3 -2 -3 8 -9 7 -19 -1 -12 -10 -13 -9 -8 5
7 18 26 17 30 -2z m-119 -6 c-3 -8 -1 -17 6 -20 7 -2 4 -5 -5 -5 -10 -1 -18
-6 -18 -13 0 -6 -2 -9 -5 -6 -7 6 12 58 21 58 3 0 4 -6 1 -14z m63 -50 c0 -1
-11 -15 -25 -30 -14 -15 -25 -25 -25 -22 0 2 -3 13 -6 23 -4 12 -3 14 3 5 7
-10 14 -8 28 8 17 19 25 24 25 16z"/>
<path d="M1896 697 c3 -10 9 -15 12 -12 3 3 0 11 -7 18 -10 9 -11 8 -5 -6z"/>
<path d="M1855 680 c-3 -5 -1 -10 4 -10 6 0 11 5 11 10 0 6 -2 10 -4 10 -3 0
-8 -4 -11 -10z"/>
<path d="M1950 639 c0 -5 5 -7 10 -4 6 3 10 8 10 11 0 2 -4 4 -10 4 -5 0 -10
-5 -10 -11z"/>
<path d="M792 745 c0 -16 2 -22 5 -12 2 9 2 23 0 30 -3 6 -5 -1 -5 -18z"/>
<path d="M1620 376 c0 -9 3 -16 8 -17 4 0 16 -2 26 -4 11 -2 83 -6 160 -10 78
-3 163 -9 189 -14 26 -4 50 -4 53 1 3 4 10 6 15 3 5 -4 9 -2 9 4 0 18 -18 22
-147 27 -70 3 -132 9 -138 12 -5 3 -46 7 -92 10 -71 3 -83 1 -83 -12z"/>
<path d="M1610 308 c0 -27 13 -58 21 -52 5 3 6 -2 3 -10 -3 -9 -10 -16 -16
-16 -5 0 -8 -12 -7 -28 2 -15 -1 -33 -5 -41 -6 -9 -1 -19 15 -32 13 -10 20
-21 16 -25 -4 -4 -7 -2 -7 4 0 7 -7 12 -15 12 -8 0 -14 -3 -13 -8 0 -4 -1 -14
-5 -22 -3 -8 -8 -32 -10 -52 l-6 -38 225 0 224 1 1 52 c2 113 10 191 21 204
21 25 -7 34 -126 38 -64 2 -120 6 -124 8 -4 3 -49 8 -99 11 -73 6 -93 4 -93
-6z m81 -51 c-10 -9 -11 -8 -5 6 3 10 9 15 12 12 3 -3 0 -11 -7 -18z m234 9
l80 -4 -2 -39 c-3 -60 -4 -65 -9 -115 l-6 -48 -71 4 c-40 2 -88 5 -108 5 l-36
1 1 44 c1 25 4 47 8 51 3 3 2 22 -2 41 -4 19 -4 34 1 34 5 0 9 6 9 14 0 14 25
25 45 20 6 -2 46 -5 90 -8z m-172 -31 c-3 -9 -8 -14 -10 -11 -3 3 -2 9 2 15 9
16 15 13 8 -4z m-29 -50 c-7 -16 -24 -21 -24 -6 0 8 7 13 27 20 1 1 0 -6 -3
-14z m-82 -27 c-7 -7 -12 -8 -12 -2 0 14 12 26 19 19 2 -3 -1 -11 -7 -17z m92
-63 c-7 -16 -24 -21 -24 -6 0 8 7 13 27 20 1 1 0 -6 -3 -14z"/>
<path d="M1942 178 c-7 -7 -12 -16 -12 -21 0 -5 7 -1 16 8 9 9 14 18 12 20 -2
3 -10 -1 -16 -7z"/>
<path d="M1977 133 c-4 -3 -7 -11 -7 -17 0 -6 5 -5 12 2 6 6 9 14 7 17 -3 3
-9 2 -12 -2z"/>
<path d="M1955 90 c-3 -5 -1 -10 4 -10 6 0 11 5 11 10 0 6 -2 10 -4 10 -3 0
-8 -4 -11 -10z"/>
<path d="M3508 299 c-10 -5 -18 -15 -18 -20 0 -6 4 -8 9 -5 5 4 11 2 13 -2 1
-5 19 -4 38 1 33 8 34 10 15 23 -22 16 -34 17 -57 3z"/>
<path d="M2096 281 c-2 -3 -6 -33 -7 -65 -2 -31 -9 -85 -16 -119 -19 -91 -18
-97 16 -97 l29 0 1 71 c0 40 3 80 6 90 4 11 2 19 -6 19 -9 0 -8 4 1 15 7 8 10
24 7 35 -3 11 -1 20 4 20 5 0 9 6 9 14 0 14 -37 29 -44 17z"/>
<path d="M3533 243 c4 -6 -2 -13 -13 -16 -33 -9 -22 -27 15 -27 32 0 35 2 25
19 -5 11 -15 23 -22 27 -6 4 -8 3 -5 -3z"/>
<path d="M1547 208 c-11 -9 -14 -18 -8 -27 11 -17 27 -8 34 19 6 23 -2 25 -26
8z m13 -18 c0 -5 -2 -10 -4 -10 -3 0 -8 5 -11 10 -3 6 -1 10 4 10 6 0 11 -4
11 -10z"/>
<path d="M3489 178 c-2 -24 3 -43 14 -50 9 -6 9 -8 0 -8 -18 0 -16 -16 5 -36
16 -17 16 -18 0 -11 -15 5 -18 0 -18 -33 0 -36 2 -40 25 -40 25 0 26 1 23 67
-2 49 -7 70 -18 75 -13 6 -12 7 1 7 22 1 32 28 13 35 -25 10 -44 7 -45 -6z"/>
</g>
</svg>
